<?xml version="1.0" encoding="UTF-8"?> <svg xmlns="http://www.w3.org/2000/svg" width="885" height="144" viewBox="0 0 885 144" fill="none"><path d="M11.606 2.85871C8.61407 2.85871 4.8741 6.34936 3.50278 9.96466C2.75479 11.71 3.25345 13.206 3.50278 14.2033C3.75211 14.8266 4.62477 14.702 5.2481 14.702C8.61407 14.8266 11.98 14.702 15.346 14.8266C15.8447 14.8266 16.5927 14.8266 16.842 14.8266C16.9667 14.8266 17.216 14.8266 17.216 14.9513C17.216 15.076 17.0913 15.2006 16.7173 15.3253C16.468 15.4499 13.6007 16.4473 11.7307 16.9459C9.11273 17.5693 5.2481 18.4419 4.37544 18.6913C3.50278 18.8159 2.63012 18.9406 2.38079 19.4392C2.25612 19.9379 2.75479 20.1872 3.75211 20.6859C4.8741 21.1846 6.12076 21.5586 7.24275 22.0572C8.24008 22.4312 8.73874 23.3039 8.48941 24.9245C8.11541 26.9192 8.73874 27.9165 10.2347 28.0412C10.7334 28.1658 11.2321 28.1658 11.606 28.1658C16.3433 28.1658 21.0806 28.1658 25.8179 28.1658C26.1919 28.1658 26.4413 28.1658 26.8153 28.1658C27.1893 28.1658 27.3139 28.4152 27.0646 28.9138C26.8153 29.2878 26.5659 29.6618 26.3166 30.0358C25.3193 31.9058 24.1973 33.6511 23.2 35.5211C22.2026 37.1418 22.3273 37.6404 23.3246 38.2638C23.8233 38.6378 24.3219 38.8871 24.9453 39.0118C25.6933 39.3858 26.4413 39.6351 27.1893 39.8844C27.4386 40.0091 28.0619 40.2584 28.3112 40.3831C28.5606 40.5077 28.8099 40.6324 28.6852 41.0064C28.6852 41.2557 28.3112 41.3804 27.9372 41.5051C27.4386 41.7544 26.0673 42.1284 25.1946 42.3777C24.3219 42.6271 22.3273 43.1257 20.7066 43.749C19.3353 44.2477 18.2133 44.871 17.964 44.9957C17.7147 45.1204 17.59 45.245 17.59 45.3697C17.59 45.619 17.7147 45.619 17.964 45.619C18.0887 45.619 24.8206 45.619 27.6879 45.619C28.0619 45.619 28.4359 45.619 28.8099 45.619C28.9346 45.619 29.0592 45.619 29.0592 45.8684C29.1839 46.1177 29.0592 46.2424 28.8099 46.2424C28.5606 46.367 21.5793 48.611 19.3353 49.2343C18.712 49.4837 17.964 49.733 17.964 50.107C17.964 50.6057 18.9613 50.855 19.46 51.1043C20.7066 51.603 22.078 51.977 23.3246 52.4756C24.9453 53.2236 24.8206 53.5976 23.6986 55.8416C21.33 60.5789 18.9613 65.1915 16.7173 69.8042C14.4734 74.4168 12.6034 79.1541 11.2321 84.016C10.2347 87.382 11.4814 90 13.9747 90.1247C17.7147 90.1247 21.4546 90.1247 25.3193 90.1247C26.9399 90.1247 28.4359 89.1273 29.8072 87.2574C30.4306 86.26 31.1786 85.0134 31.4279 83.8914C33.6719 76.7854 36.6638 70.0535 40.1545 63.3216C41.5258 60.5789 43.0218 57.9609 44.3931 55.343C45.1411 53.847 45.1411 53.3483 44.1438 52.725C43.3958 52.351 42.5231 51.977 41.5258 51.7276C40.6531 51.3537 39.7805 51.1043 38.7832 50.6057C38.6585 50.6057 38.2845 50.3563 38.2845 50.107C38.4092 49.733 38.9078 49.6083 39.1572 49.4837C39.9051 49.2343 42.0245 48.7357 44.0191 48.1123C46.0138 47.6137 48.3824 46.8657 49.0057 46.4917C49.2551 46.2424 49.3797 46.1177 49.3797 45.8684C49.5044 45.7437 49.2551 45.619 48.8811 45.619C48.6317 45.619 38.7832 45.619 38.5338 45.619C38.2845 45.619 37.9105 45.619 37.9105 45.3697C37.9105 45.245 38.4092 44.7464 38.9078 44.497C39.5312 44.2477 40.7778 43.6244 41.6505 43.3751C43.5205 42.8764 44.2684 42.6271 46.1384 42.1284C46.6371 42.0037 47.7591 41.6297 48.2577 41.5051C48.6317 41.3804 48.8811 41.2557 49.0057 40.8817C49.0057 40.6324 48.6317 40.3831 48.5071 40.3831C48.0084 40.1337 47.5098 39.8844 46.8864 39.6351C45.7644 39.2611 44.6424 38.8871 43.6451 38.2638C42.5231 37.7651 42.6478 37.0171 43.5205 35.5211C44.6424 33.5265 45.7644 31.6565 46.8864 29.6618C47.7591 28.1658 47.7591 28.1658 49.1304 28.1658C53.9924 28.1658 58.8543 28.1658 63.5916 28.1658C64.0903 28.1658 64.7136 28.1658 65.2123 28.0412C67.2069 27.7918 69.0769 26.4205 70.9469 24.4259C71.6949 23.5532 71.8195 22.9299 71.0716 22.4312C70.6976 22.0572 66.3343 20.3119 65.9603 20.1872C65.8356 20.0626 65.4616 19.9379 65.5863 19.5639C65.7109 19.1899 65.9603 19.1899 66.3343 19.0653C66.7083 18.9406 68.8276 18.3173 70.0742 18.0679C72.5675 17.4446 76.1828 16.6966 77.1802 16.4473C78.4268 16.0733 79.5488 15.5746 79.7982 15.4499C80.0475 15.3253 80.4215 15.076 80.4215 14.9513C80.4215 14.8266 80.2968 14.702 80.1722 14.702C79.9228 14.702 78.9255 14.8266 78.4268 14.8266C75.0609 14.702 71.5702 14.702 68.2042 14.702C67.7056 14.702 67.2069 14.8266 66.9576 14.4526C66.7083 14.0786 65.9603 11.9593 66.7083 10.214C66.9576 9.34133 67.3316 8.59333 67.5809 7.84534C68.4536 5.1027 67.5809 3.10805 65.4616 2.85871C65.0876 2.85871 64.7136 2.85871 64.2149 2.85871C55.613 2.85871 47.0111 2.85871 38.2845 2.85871C29.4332 2.85871 20.4573 2.98339 11.606 2.85871ZM149.215 15.076C149.215 14.702 148.966 14.8266 148.592 14.8266C148.093 14.8266 147.595 14.702 147.096 14.702C144.104 14.702 141.237 14.702 138.37 14.702C137.871 14.702 137.248 14.702 136.749 14.702C135.128 14.328 134.63 12.3333 135.627 10.0893C135.876 9.59066 136.126 8.96733 136.375 8.34401C137.622 5.4767 136.749 3.10805 134.505 2.85871C134.006 2.85871 133.508 2.85871 133.009 2.85871C125.28 2.85871 117.55 2.85871 109.696 2.85871C105.707 2.85871 101.593 2.85871 97.4792 2.85871C93.6146 2.85871 89.6253 2.85871 85.636 2.85871C83.5167 2.85871 81.6467 3.98071 79.7767 6.10002C78.5301 7.47134 77.6574 9.21667 76.9094 10.962C76.5354 11.8346 76.5354 12.5826 76.7847 13.4553C77.0341 14.328 78.0314 14.8266 79.1534 14.702C82.5194 14.702 85.7607 14.702 89.002 14.702C89.5006 14.702 89.9993 14.8266 90.6226 14.8266C90.872 14.8266 90.872 14.9513 90.872 15.076C90.7473 15.3253 90.6226 15.3253 90.498 15.4499C90.124 15.6993 87.2567 16.5719 85.1373 17.0706C83.018 17.6939 80.2754 18.4419 78.6547 18.9406C77.1587 19.4392 76.2861 19.5639 75.5381 19.8132C75.4134 19.9379 75.0394 20.0626 74.9148 20.3119C74.9148 20.5612 75.1641 20.6859 75.2888 20.6859C75.6628 20.9352 76.2861 21.1846 76.6601 21.3092C77.6574 21.6832 79.0287 22.1819 79.6521 22.4312C80.2754 22.8052 80.6494 22.9299 81.0234 23.3039C81.3974 23.6779 81.3974 24.1765 81.0234 24.9245C80.774 25.4232 80.5247 25.7972 80.2754 26.2959C78.5301 29.1632 76.9094 32.0305 75.1641 34.8978C74.9148 35.5211 74.5408 36.0198 74.2914 36.6431C73.9174 37.3911 73.9174 37.8898 74.2914 38.3884C74.6654 38.7624 75.1641 38.8871 75.6628 39.1364C76.5354 39.5104 77.6574 39.8844 78.6547 40.2584C79.0287 40.3831 79.2781 40.5077 79.6521 40.6324C80.0261 40.8817 80.1507 41.0064 80.0261 41.2557C80.0261 41.5051 79.5274 41.7544 79.4027 41.8791C78.6547 42.1284 77.9067 42.3777 77.0341 42.6271C75.5381 43.0011 71.1748 44.3724 70.3021 44.7464C70.0528 44.871 69.5541 45.1204 69.4295 45.3697C69.4295 45.619 69.9281 45.619 70.1775 45.619C72.2968 45.619 74.2914 45.619 76.4108 45.619C77.6574 45.619 78.7794 45.619 79.9014 45.619C80.0261 45.619 80.1507 45.619 80.2754 45.7437C80.2754 45.8684 79.9014 46.1177 79.7767 46.1177C79.1534 46.4917 72.7954 48.4863 72.2968 48.7357C72.0475 48.8603 71.4241 49.1097 71.2995 49.4837C71.1748 49.733 71.6735 49.9823 71.7981 50.107C72.4214 50.481 73.1694 50.7303 73.7928 51.1043C74.5408 51.4783 75.2888 51.8523 76.1614 52.2263C77.1587 52.725 77.0341 53.3483 76.2861 54.8443C76.0368 55.343 75.7874 55.7169 75.5381 56.0909C73.6681 59.9556 71.5488 63.6955 69.6788 67.5602C67.1855 72.6715 65.1908 77.7828 63.4455 83.0187C62.1989 87.008 63.3209 89.8753 66.3128 90C66.4375 90 66.6868 90 66.8115 90C82.7687 90 98.7259 90 114.558 90C117.8 90 120.293 87.756 121.664 83.6421C122.288 81.5227 123.036 79.5281 123.784 77.5334C124.532 75.6635 125.28 73.7935 126.028 71.9235C127.524 68.1835 126.776 65.8149 123.908 65.8149C123.534 65.8149 123.036 65.8149 122.662 65.8149C112.688 65.8149 102.715 65.8149 92.7419 65.8149C92.368 65.8149 91.8693 65.8149 91.4953 65.6902C91.1213 65.6902 90.9966 65.5655 91.246 64.9422C92.2433 62.9476 93.3653 60.9529 94.3626 58.9583C94.6119 58.4596 94.9859 58.2103 95.3599 58.2103C95.7339 58.2103 96.1079 58.2103 96.4819 58.2103C103.588 58.2103 110.694 58.2103 117.8 58.2103C121.29 58.2103 124.656 58.2103 128.022 58.2103C130.142 58.2103 132.136 56.9636 134.006 54.8443C135.253 53.5976 135.378 52.8496 134.38 52.2263C133.632 51.603 132.635 51.3537 131.887 50.9797C131.264 50.6057 130.765 50.3563 130.266 50.107C129.892 49.8577 129.768 49.733 129.768 49.4837C129.892 49.1097 130.142 48.8603 130.516 48.7357C131.139 48.611 131.887 48.237 132.51 47.9877C134.38 47.3644 136.126 46.8657 137.996 46.2424C138.37 46.1177 138.619 45.993 138.619 45.7437C138.744 45.619 138.245 45.619 138.12 45.619C135.253 45.619 132.261 45.619 129.394 45.619C128.895 45.619 128.521 45.619 128.147 45.4944C128.022 45.4944 127.773 45.4944 127.773 45.3697C127.773 45.245 128.022 45.1204 128.396 44.871C128.77 44.7464 130.017 44.123 130.89 43.8737C133.009 43.2504 134.754 42.8764 136.749 42.2531C137.497 42.0037 138.494 41.7544 138.494 41.3804C138.619 40.7571 137.622 40.5077 137.123 40.3831C135.876 39.8844 134.505 39.3858 133.134 38.7624C132.261 38.3884 131.513 37.7651 131.388 36.3938C131.264 35.1471 130.516 34.5238 129.518 34.5238C129.02 34.3991 128.521 34.3991 128.022 34.3991C117.924 34.3991 107.826 34.3991 97.7286 34.3991C97.3546 34.3991 96.9806 34.3991 96.6066 34.3991C95.9833 34.3991 95.9833 34.2745 96.3573 33.4018C97.4792 31.6565 98.4766 29.9112 99.4739 28.1658C99.9726 27.2932 100.347 26.9192 101.095 26.9192C101.843 26.9192 122.288 26.9192 132.386 26.9192C132.884 26.9192 133.383 27.0439 133.882 26.9192C135.752 26.7945 137.996 26.4205 139.118 25.2985C140.115 24.3012 139.741 23.3039 138.868 22.9299C137.996 22.5559 137.622 22.4312 137.248 22.1819C136.375 21.9326 135.752 21.6832 134.879 21.3092C134.63 21.1846 134.006 20.9352 133.757 20.8106C133.508 20.6859 133.258 20.6859 133.258 20.3119C133.258 20.0626 133.632 19.8132 134.006 19.8132C134.879 19.4392 137.746 18.8159 138.494 18.5666C141.736 17.8186 143.73 17.3199 145.102 16.8213C146.473 16.4473 147.719 15.9486 148.343 15.6993C148.841 15.5746 149.215 15.3253 149.215 15.076ZM182.932 90C183.43 90 183.929 90 184.428 90C186.422 89.7507 188.168 88.504 189.539 86.1354C190.038 85.3874 190.412 84.5147 190.661 83.7667C191.783 80.6501 192.905 77.6581 194.027 74.6661C194.65 73.1701 195.398 71.7988 195.897 70.3028C197.144 67.0615 196.396 64.9422 194.027 64.6929C193.528 64.6929 193.03 64.6929 192.656 64.6929C182.558 64.6929 172.584 64.6929 162.611 64.6929C162.113 64.6929 161.739 64.6929 161.365 64.6929C160.617 64.6929 160.617 64.5682 161.115 63.5709C162.362 61.0776 163.733 58.5843 164.98 56.0909C166.476 53.3483 166.476 52.8496 164.481 52.1016C163.359 51.603 162.237 51.3537 160.991 50.855C160.492 50.6057 159.869 50.481 159.869 49.9823C159.869 49.8577 159.869 49.6083 160.118 49.4837C160.741 49.2343 164.73 48.1123 166.351 47.6137C167.473 47.3644 168.47 46.9904 169.468 46.6164C169.842 46.4917 170.59 46.1177 170.59 45.8684C170.59 45.4944 169.966 45.619 169.717 45.619C167.099 45.619 164.481 45.619 161.739 45.619C160.991 45.619 160.118 45.4944 159.37 45.4944C158.871 45.4944 158.871 45.245 159.245 44.7464C159.744 43.9984 160.492 43.6244 161.614 43.1257C162.736 42.7517 164.107 42.3777 165.478 42.0037C166.85 41.6297 168.221 41.2557 169.592 40.8817C169.966 40.7571 170.34 40.7571 170.59 40.5077C170.839 40.3831 170.839 40.1337 170.714 39.8844C170.59 39.6351 170.34 39.6351 170.091 39.5104C169.468 39.1364 168.72 39.0118 167.972 38.6378C167.099 38.3884 166.226 38.1391 165.478 37.7651C164.107 37.0171 163.983 36.5184 165.229 34.5238C166.85 31.6565 168.47 28.9138 170.091 26.0465C170.34 25.6725 170.465 25.4232 170.714 25.0492C171.462 23.5532 171.462 23.0546 170.465 22.4312C169.842 22.0572 167.847 21.3092 167.099 21.0599C166.351 20.6859 165.478 20.4366 165.229 20.3119C164.98 20.0626 164.606 19.6886 165.478 19.3146C166.351 19.0653 175.576 16.6966 178.194 15.9486C178.818 15.8239 179.566 15.5746 179.815 15.4499C180.189 15.2006 180.064 14.8266 179.69 14.8266C179.441 14.8266 179.067 14.8266 178.818 14.8266C174.953 14.702 171.338 14.702 167.473 14.8266C166.226 14.8266 165.728 14.0786 165.728 12.7073C165.728 11.9593 165.977 11.0867 166.226 10.3387C166.476 9.71532 166.725 9.092 166.974 8.59333C168.346 5.35203 167.473 2.98339 165.104 2.85871C161.365 2.85871 157.625 2.85871 153.885 2.85871C152.763 2.85871 151.765 3.35738 150.643 4.10538C148.399 5.60136 146.779 7.97001 145.781 10.7127C145.283 12.084 145.158 13.3306 145.657 14.0786C146.155 14.702 146.779 14.702 147.402 14.702C150.893 14.702 154.508 14.702 158.123 14.702C158.622 14.702 159.121 14.8266 159.619 14.8266C159.993 14.8266 159.993 15.2006 159.619 15.4499C159.121 15.6993 157.251 16.1979 156.627 16.3226C153.635 17.1953 151.89 17.5693 148.898 18.3173C147.901 18.5666 146.779 18.8159 145.781 19.0653C145.532 19.1899 145.158 19.3146 144.909 19.5639C144.784 19.8132 144.909 20.0626 144.909 20.1872C145.033 20.3119 145.283 20.4366 145.407 20.5612C146.529 20.9352 147.776 21.3092 148.898 21.8079C149.397 22.0572 150.02 22.3066 150.519 22.5559C151.142 22.9299 151.142 23.4285 150.643 24.5505C150.394 25.0492 150.02 25.5479 149.771 26.0465C148.15 28.9138 146.405 31.7811 144.784 34.6485C143.787 36.5184 143.787 37.0171 145.033 37.6404C145.532 38.0144 146.155 38.1391 146.779 38.3884C147.651 38.7624 148.524 39.0118 149.397 39.2611C149.771 39.3858 150.02 39.5104 150.519 39.7597C150.893 39.8844 150.768 40.2584 150.269 40.5077C149.895 40.7571 149.272 41.0064 148.773 41.1311C147.527 41.3804 146.529 41.6297 145.283 42.0037C144.036 42.3777 143.163 42.6271 141.792 43.1257C140.919 43.4997 140.171 43.8737 139.423 44.3724C139.299 44.497 138.8 44.871 138.8 45.1204C138.675 45.3697 138.8 45.4944 139.049 45.4944C139.548 45.4944 148.773 45.4944 149.895 45.619C150.02 45.619 150.269 45.619 150.269 45.8684C150.269 45.993 150.02 46.1177 149.646 46.2424C149.397 46.4917 148.773 46.741 147.651 47.115C146.529 47.489 143.662 48.237 141.667 48.7357C141.169 48.985 140.545 49.1097 140.047 49.359C139.922 49.359 139.548 49.4837 139.423 49.733C139.299 50.107 139.548 50.2317 139.797 50.3563C140.047 50.481 141.293 50.9797 142.166 51.3537C143.163 51.7276 144.161 51.977 145.033 52.6003C146.031 53.099 146.031 53.5976 145.283 55.0936C144.909 55.7169 144.659 56.3403 144.285 56.9636C139.797 65.0669 135.933 73.4195 132.816 82.1461C131.195 86.8834 132.442 90.2493 136.182 90C136.556 89.8753 136.93 90 137.179 90C144.784 90 152.264 90 159.744 90C167.473 90 175.202 90 182.932 90ZM285.934 15.076C285.934 14.702 285.684 14.8266 285.31 14.8266C284.812 14.8266 284.313 14.702 283.814 14.702C280.822 14.702 277.955 14.702 275.088 14.702C274.589 14.702 273.966 14.702 273.467 14.702C271.847 14.328 271.348 12.3333 272.345 10.0893C272.595 9.59066 272.844 8.96733 273.093 8.34401C274.34 5.4767 273.467 3.10805 271.223 2.85871C270.725 2.85871 270.226 2.85871 269.727 2.85871C261.998 2.85871 254.269 2.85871 246.415 2.85871C242.425 2.85871 238.311 2.85871 234.198 2.85871C230.333 2.85871 226.344 2.85871 222.354 2.85871C220.235 2.85871 218.365 3.98071 216.495 6.10002C215.248 7.47134 214.376 9.21667 213.628 10.962C213.254 11.8346 213.254 12.5826 213.503 13.4553C213.752 14.328 214.75 14.8266 215.872 14.702C219.238 14.702 222.479 14.702 225.72 14.702C226.219 14.702 226.718 14.8266 227.341 14.8266C227.59 14.8266 227.59 14.9513 227.59 15.076C227.466 15.3253 227.341 15.3253 227.216 15.4499C226.842 15.6993 223.975 16.5719 221.856 17.0706C219.736 17.6939 216.994 18.4419 215.373 18.9406C213.877 19.4392 213.004 19.5639 212.256 19.8132C212.132 19.9379 211.758 20.0626 211.633 20.3119C211.633 20.5612 211.882 20.6859 212.007 20.6859C212.381 20.9352 213.004 21.1846 213.378 21.3092C214.376 21.6832 215.747 22.1819 216.37 22.4312C216.994 22.8052 217.368 22.9299 217.742 23.3039C218.116 23.6779 218.116 24.1765 217.742 24.9245C217.492 25.4232 217.243 25.7972 216.994 26.2959C215.248 29.1632 213.628 32.0305 211.882 34.8978C211.633 35.5211 211.259 36.0198 211.01 36.6431C210.636 37.3911 210.636 37.8898 211.01 38.3884C211.384 38.7624 211.882 38.8871 212.381 39.1364C213.254 39.5104 214.376 39.8844 215.373 40.2584C215.747 40.3831 215.996 40.5077 216.37 40.6324C216.744 40.8817 216.869 41.0064 216.744 41.2557C216.744 41.5051 216.246 41.7544 216.121 41.8791C215.373 42.1284 214.625 42.3777 213.752 42.6271C212.256 43.0011 207.893 44.3724 207.02 44.7464C206.771 44.871 206.272 45.1204 206.148 45.3697C206.148 45.619 206.646 45.619 206.896 45.619C209.015 45.619 211.01 45.619 213.129 45.619C214.376 45.619 215.498 45.619 216.62 45.619C216.744 45.619 216.869 45.619 216.994 45.7437C216.994 45.8684 216.62 46.1177 216.495 46.1177C215.872 46.4917 209.514 48.4863 209.015 48.7357C208.766 48.8603 208.142 49.1097 208.018 49.4837C207.893 49.733 208.392 49.9823 208.516 50.107C209.14 50.481 209.888 50.7303 210.511 51.1043C211.259 51.4783 212.007 51.8523 212.88 52.2263C213.877 52.725 213.752 53.3483 213.004 54.8443C212.755 55.343 212.506 55.7169 212.256 56.0909C210.386 59.9556 208.267 63.6955 206.397 67.5602C203.904 72.6715 201.909 77.7828 200.164 83.0187C198.917 87.008 200.039 89.8753 203.031 90C203.156 90 203.405 90 203.53 90C219.487 90 235.444 90 251.277 90C254.518 90 257.011 87.756 258.383 83.6421C259.006 81.5227 259.754 79.5281 260.502 77.5334C261.25 75.6635 261.998 73.7935 262.746 71.9235C264.242 68.1835 263.494 65.8149 260.627 65.8149C260.253 65.8149 259.754 65.8149 259.38 65.8149C249.407 65.8149 239.433 65.8149 229.46 65.8149C229.086 65.8149 228.588 65.8149 228.214 65.6902C227.84 65.6902 227.715 65.5655 227.964 64.9422C228.962 62.9476 230.084 60.9529 231.081 58.9583C231.33 58.4596 231.704 58.2103 232.078 58.2103C232.452 58.2103 232.826 58.2103 233.2 58.2103C240.306 58.2103 247.412 58.2103 254.518 58.2103C258.009 58.2103 261.375 58.2103 264.741 58.2103C266.86 58.2103 268.855 56.9636 270.725 54.8443C271.971 53.5976 272.096 52.8496 271.099 52.2263C270.351 51.603 269.353 51.3537 268.605 50.9797C267.982 50.6057 267.483 50.3563 266.985 50.107C266.611 49.8577 266.486 49.733 266.486 49.4837C266.611 49.1097 266.86 48.8603 267.234 48.7357C267.857 48.611 268.605 48.237 269.229 47.9877C271.099 47.3644 272.844 46.8657 274.714 46.2424C275.088 46.1177 275.337 45.993 275.337 45.7437C275.462 45.619 274.963 45.619 274.839 45.619C271.971 45.619 268.979 45.619 266.112 45.619C265.613 45.619 265.239 45.619 264.865 45.4944C264.741 45.4944 264.491 45.4944 264.491 45.3697C264.491 45.245 264.741 45.1204 265.115 44.871C265.489 44.7464 266.735 44.123 267.608 43.8737C269.727 43.2504 271.473 42.8764 273.467 42.2531C274.215 42.0037 275.213 41.7544 275.213 41.3804C275.337 40.7571 274.34 40.5077 273.841 40.3831C272.595 39.8844 271.223 39.3858 269.852 38.7624C268.979 38.3884 268.231 37.7651 268.107 36.3938C267.982 35.1471 267.234 34.5238 266.237 34.5238C265.738 34.3991 265.239 34.3991 264.741 34.3991C254.643 34.3991 244.545 34.3991 234.447 34.3991C234.073 34.3991 233.699 34.3991 233.325 34.3991C232.702 34.3991 232.702 34.2745 233.076 33.4018C234.198 31.6565 235.195 29.9112 236.192 28.1658C236.691 27.2932 237.065 26.9192 237.813 26.9192C238.561 26.9192 259.006 26.9192 269.104 26.9192C269.603 26.9192 270.101 27.0439 270.6 26.9192C272.47 26.7945 274.714 26.4205 275.836 25.2985C276.833 24.3012 276.459 23.3039 275.587 22.9299C274.714 22.5559 274.34 22.4312 273.966 22.1819C273.093 21.9326 272.47 21.6832 271.597 21.3092C271.348 21.1846 270.725 20.9352 270.475 20.8106C270.226 20.6859 269.977 20.6859 269.977 20.3119C269.977 20.0626 270.351 19.8132 270.725 19.8132C271.597 19.4392 274.465 18.8159 275.213 18.5666C278.454 17.8186 280.448 17.3199 281.82 16.8213C283.191 16.4473 284.438 15.9486 285.061 15.6993C285.56 15.5746 285.934 15.3253 285.934 15.076ZM324.387 63.8202C328.377 63.5709 332.989 62.6982 337.103 60.9529C340.22 59.5816 343.835 56.9636 345.456 55.5923C346.952 54.221 347.201 53.3483 345.954 52.725C345.206 52.351 344.458 51.977 343.71 51.603C343.336 51.4783 342.962 51.3537 342.713 51.1043C342.464 50.855 342.464 50.3563 342.838 50.2317C343.087 50.107 346.453 49.359 349.445 48.4863C351.689 47.863 353.559 47.2397 354.307 46.8657C355.18 46.4917 355.803 46.2424 355.803 45.8684C355.803 45.4944 355.055 45.619 354.432 45.619C353.933 45.619 348.074 45.619 344.832 45.4944C344.583 45.4944 344.334 45.619 344.209 45.3697C344.084 45.1204 344.708 44.6217 344.957 44.3724C345.456 43.9984 346.204 43.6244 346.827 43.3751C347.7 43.0011 348.946 42.6271 349.819 42.3777C351.689 42.0037 353.06 41.6297 354.93 41.2557C355.429 41.1311 356.177 40.8817 356.551 40.6324C357.05 40.5077 356.925 40.0091 356.426 39.7597C356.052 39.6351 353.559 38.6378 352.562 38.2638C352.063 38.0144 351.564 37.7651 351.066 37.3911C350.567 37.0171 350.567 36.6431 351.066 35.6458C351.315 35.1471 351.689 34.5238 352.063 34.0251C353.31 31.5318 354.681 29.1632 355.928 26.6699C357.299 23.8025 357.174 23.1792 355.18 22.3066C354.806 22.1819 350.941 20.9352 350.567 20.6859C350.318 20.5612 349.57 20.4366 349.819 19.9379C349.944 19.4392 350.442 19.3146 351.066 19.1899C351.689 18.9406 355.429 18.0679 356.426 17.6939C359.044 17.0706 361.413 16.1979 362.41 15.6993C362.909 15.4499 363.158 15.2006 363.158 15.076C363.158 14.8266 362.909 14.8266 362.784 14.8266C362.535 14.8266 361.662 14.8266 361.164 14.8266C357.798 14.8266 352.188 14.702 351.19 14.702C350.068 14.702 348.822 14.4526 347.824 13.7046C346.952 13.0813 346.079 11.5853 345.331 10.214C343.835 7.09735 341.466 5.35203 338.599 4.23004C335.732 3.23271 332.74 3.10805 329.623 3.10805C318.403 2.98339 307.059 2.98339 295.714 2.98339C295.465 2.98339 295.091 2.98339 294.841 3.10805C292.099 3.23271 289.356 5.22737 287.486 8.46867C286.364 10.588 286.115 12.2086 286.988 13.8293C287.362 14.5773 288.11 14.702 288.858 14.702C292.224 14.8266 300.077 14.8266 300.451 14.8266C300.576 14.8266 300.825 14.702 300.825 14.9513C300.95 15.2006 300.576 15.4499 300.327 15.5746C299.205 15.9486 291.476 18.0679 288.733 18.6913C287.985 18.8159 287.237 19.0653 286.489 19.3146C286.24 19.4392 285.866 19.6886 285.741 20.0626C285.616 20.4366 285.866 20.5612 286.115 20.6859C286.988 21.0599 290.354 22.4312 290.977 22.9299C291.725 23.4285 291.725 23.9272 291.102 25.0492C290.603 25.9219 290.104 26.7945 289.606 27.6672C288.11 30.1605 286.614 32.6538 285.242 35.1471C284.494 36.5184 284.494 37.0171 285.367 37.6404C285.741 37.8898 286.364 38.1391 286.863 38.3884C287.736 38.6378 290.229 39.5104 290.478 39.6351C290.728 39.7597 291.102 39.8844 290.977 40.2584C290.852 40.6324 290.478 40.7571 290.229 40.8817C289.481 41.1311 288.858 41.3804 288.11 41.5051C286.24 42.0037 283.746 42.7517 281.876 43.6244C280.256 44.3724 279.134 44.871 279.258 45.245C279.258 45.619 280.006 45.4944 280.256 45.4944C283.372 45.619 290.354 45.4944 290.728 45.619C290.852 45.619 290.977 45.619 290.977 45.8684C290.977 46.1177 290.852 46.2424 290.478 46.4917C290.229 46.741 287.985 47.863 285.99 48.3617C283.996 48.985 282.749 49.2343 281.502 49.6083C280.131 49.8577 279.882 50.107 279.757 50.481C279.632 51.1043 280.256 51.229 280.879 51.4783C281.502 51.7276 283.497 52.351 284.744 52.8496C286.364 53.5976 286.364 54.0963 284.993 56.4649C282.001 61.9502 278.884 67.4355 276.391 73.1701C274.77 76.7854 273.15 80.2761 271.903 83.8914C270.656 87.2574 271.654 89.8753 274.272 90C278.012 90 281.876 90 285.616 90C287.112 90 288.484 89.1273 289.73 87.756C290.852 86.634 291.6 85.2627 292.224 83.7667C294.467 77.5334 297.335 71.4248 300.451 65.4409C301.324 63.9449 301.324 63.9449 302.571 63.9449C306.311 63.9449 320.772 63.9449 324.387 63.8202ZM329.623 27.4178C330.371 27.5425 331.244 27.5425 331.992 27.7918C333.488 28.1658 333.737 29.5372 332.615 31.6565C331.992 32.9031 331.244 34.0251 330.496 35.2718C329.499 37.0171 329.499 37.3911 330.496 38.1391C330.87 38.3884 331.244 38.6378 331.493 38.7624C331.618 38.8871 331.867 39.0118 331.743 39.2611C331.743 39.5104 331.369 39.3858 330.995 39.3858C330.745 39.3858 317.78 39.5104 311.547 39.3858C309.552 39.3858 307.807 38.6378 306.061 37.8898C304.69 37.2664 304.69 36.6431 305.812 34.6485C306.934 32.7785 307.931 30.9085 309.053 29.1632C310.051 27.5425 309.677 27.4178 311.422 27.4178C314.539 27.4178 317.78 27.4178 321.021 27.4178C323.889 27.4178 326.756 27.4178 329.623 27.4178ZM392.99 2.85871C386.757 2.85871 380.399 2.98339 374.166 2.85871C371.049 2.73405 367.434 5.97536 365.813 9.84C365.065 11.5853 365.564 12.9566 365.813 13.8293C366.063 14.5773 366.686 14.702 367.434 14.702C368.182 14.702 374.291 14.702 377.532 14.702C378.155 14.702 378.778 14.702 379.152 14.702C379.402 14.702 379.526 14.8266 379.402 14.9513C379.402 15.2006 379.152 15.2006 378.903 15.3253C378.404 15.5746 375.163 16.5719 372.296 17.3199C369.553 18.0679 367.683 18.4419 365.938 18.8159C365.564 18.9406 364.691 19.1899 364.567 19.5639C364.442 19.9379 364.941 20.1872 365.439 20.3119C365.938 20.5612 368.681 21.5586 369.429 21.9326C371.049 22.6806 371.174 23.3039 369.678 25.6725C367.933 28.9138 365.938 32.1551 364.068 35.2718C363.071 37.1418 363.195 37.6404 364.317 38.2638C364.816 38.6378 365.315 38.7624 365.813 39.0118C366.686 39.3858 367.434 39.6351 368.057 39.8844C368.681 40.0091 369.429 40.2584 369.553 40.5077C369.678 40.6324 369.553 41.0064 369.429 41.1311C369.304 41.2557 365.813 42.1284 363.569 42.8764C361.575 43.4997 359.455 44.3724 359.081 44.6217C358.583 44.871 358.458 45.1204 358.333 45.245C358.333 45.4944 358.832 45.4944 358.957 45.4944C361.575 45.619 364.193 45.619 366.811 45.619C367.683 45.619 368.681 45.4944 369.553 45.619C369.678 45.619 369.927 45.4944 370.052 45.7437C370.177 45.993 369.678 46.367 368.431 46.8657C367.559 47.2397 365.439 47.7383 363.195 48.3617C360.827 48.985 360.079 49.2343 359.331 49.4837C359.081 49.6083 358.707 49.733 358.583 49.9823C358.583 50.3563 358.957 50.481 359.081 50.6057C359.58 50.855 363.195 51.977 364.193 52.351C365.813 53.099 365.813 53.5976 364.567 55.8416C362.323 60.2049 360.079 64.5682 357.959 68.9315C355.715 73.5441 353.845 78.4061 352.225 83.2681C350.729 87.6314 352.848 90.1247 355.217 90.1247C358.707 90 362.323 90.1247 365.938 90C368.057 90 369.927 88.6287 371.423 86.0107C371.797 85.2627 372.047 84.5147 372.296 83.7667C373.917 79.0294 375.787 74.2921 377.906 69.5548C379.152 66.9369 380.524 64.3189 381.77 61.7009C382.144 60.9529 382.518 60.5789 383.142 60.5789C384.513 60.7036 385.884 60.7036 387.256 60.5789C387.754 60.5789 388.004 60.8282 388.004 61.4516C388.004 61.9502 388.128 62.3242 388.128 62.6982C388.627 69.5548 389.749 76.2868 391.37 82.5201C391.868 84.2654 392.367 86.0107 392.866 87.6314C393.364 89.1273 394.237 90 395.733 90C400.346 90.1247 404.834 90 409.446 90C410.693 90 412.189 89.5013 413.311 88.2547C415.306 86.1354 416.303 82.7694 415.929 80.2761C415.929 79.7774 415.804 79.4034 415.68 79.0294C414.184 73.2948 413.186 67.4355 412.563 61.2022C412.438 59.4569 412.438 59.4569 413.81 59.0829C416.802 58.2103 419.669 56.9636 422.536 55.343C423.159 54.969 423.783 54.595 424.406 54.0963C425.279 53.473 425.403 52.8496 424.78 52.351C424.157 51.977 422.037 50.9797 421.663 50.855C421.289 50.6057 420.791 50.481 420.791 50.107C420.915 49.8577 421.165 49.733 421.663 49.6083C421.913 49.6083 425.154 48.8603 428.021 48.1123C430.889 47.3644 432.634 46.741 433.382 46.367C434.005 46.1177 434.379 45.8684 434.255 45.7437C434.255 45.4944 433.881 45.619 433.756 45.619C432.26 45.619 430.764 45.619 429.268 45.619C427.398 45.619 425.403 45.619 423.533 45.4944C423.284 45.4944 422.661 45.619 422.785 45.3697C422.785 45.1204 423.159 44.871 423.783 44.6217C424.406 44.2477 425.777 43.8737 427.273 43.3751C429.393 42.7517 433.881 41.5051 434.255 41.3804C434.629 41.2557 434.753 41.1311 434.878 40.8817C434.878 40.5077 434.753 40.2584 434.504 40.2584C434.005 40.0091 433.507 39.7597 432.883 39.5104C432.011 39.1364 431.013 38.7624 430.141 38.2638C429.143 37.6404 429.143 37.1418 430.016 35.6458C430.639 34.5238 431.387 33.2771 432.011 32.1551C433.257 29.9112 434.379 27.5425 435.501 25.2985C436.249 23.4285 436.125 22.8052 435.003 22.3066C433.756 21.6832 429.642 20.1872 429.393 20.0626C429.143 19.9379 428.769 19.8132 428.769 19.4392C428.894 19.0653 429.393 18.9406 429.767 18.8159C430.141 18.6913 437.496 16.8213 439.74 16.0733C440.737 15.8239 441.735 15.4499 441.735 15.076C441.735 14.702 440.862 14.702 439.989 14.702C439.241 14.702 432.011 14.702 429.268 14.702C428.645 14.702 427.523 14.4526 426.65 13.7046C425.902 12.832 425.029 10.962 424.157 9.59066C422.91 7.59601 421.414 5.97536 419.419 4.85337C416.802 3.48205 413.934 2.85871 410.693 2.85871C404.834 2.85871 398.974 2.85871 392.99 2.85871ZM408.698 27.2932C409.945 27.2932 410.568 27.4178 411.192 27.6672C412.688 28.0412 412.688 29.4125 411.69 31.4071C410.942 32.9031 410.07 34.2745 409.072 35.7704C408.449 36.7678 407.826 37.7651 408.324 38.6378C408.574 38.8871 408.698 39.0118 408.698 39.2611C408.574 39.3858 408.449 39.3858 408.324 39.3858C407.826 39.3858 407.078 39.3858 406.828 39.3858C406.579 39.3858 394.486 39.3858 388.378 39.3858C386.882 39.3858 385.635 38.8871 384.388 38.2638C383.516 37.6404 383.516 37.0171 384.264 35.5211C385.635 33.1525 387.131 30.7838 388.502 28.4152C389.001 27.5425 389.375 27.2932 390.123 27.2932C393.364 27.2932 407.452 27.2932 408.698 27.2932ZM515.543 15.076C515.543 14.702 515.293 14.8266 514.919 14.8266C514.421 14.8266 513.922 14.702 513.423 14.702C510.431 14.702 507.564 14.702 504.697 14.702C504.198 14.702 503.575 14.702 503.076 14.702C501.455 14.328 500.957 12.3333 501.954 10.0893C502.203 9.59066 502.453 8.96733 502.702 8.34401C503.949 5.4767 503.076 3.10805 500.832 2.85871C500.333 2.85871 499.835 2.85871 499.336 2.85871C491.607 2.85871 483.877 2.85871 476.024 2.85871C472.034 2.85871 467.92 2.85871 463.806 2.85871C459.942 2.85871 455.952 2.85871 451.963 2.85871C449.844 2.85871 447.974 3.98071 446.104 6.10002C444.857 7.47134 443.984 9.21667 443.236 10.962C442.862 11.8346 442.862 12.5826 443.112 13.4553C443.361 14.328 444.358 14.8266 445.48 14.702C448.846 14.702 452.088 14.702 455.329 14.702C455.828 14.702 456.326 14.8266 456.95 14.8266C457.199 14.8266 457.199 14.9513 457.199 15.076C457.074 15.3253 456.95 15.3253 456.825 15.4499C456.451 15.6993 453.584 16.5719 451.464 17.0706C449.345 17.6939 446.602 18.4419 444.982 18.9406C443.486 19.4392 442.613 19.5639 441.865 19.8132C441.74 19.9379 441.366 20.0626 441.242 20.3119C441.242 20.5612 441.491 20.6859 441.616 20.6859C441.99 20.9352 442.613 21.1846 442.987 21.3092C443.984 21.6832 445.356 22.1819 445.979 22.4312C446.602 22.8052 446.976 22.9299 447.35 23.3039C447.724 23.6779 447.724 24.1765 447.35 24.9245C447.101 25.4232 446.852 25.7972 446.602 26.2959C444.857 29.1632 443.236 32.0305 441.491 34.8978C441.242 35.5211 440.868 36.0198 440.618 36.6431C440.244 37.3911 440.244 37.8898 440.618 38.3884C440.992 38.7624 441.491 38.8871 441.99 39.1364C442.862 39.5104 443.984 39.8844 444.982 40.2584C445.356 40.3831 445.605 40.5077 445.979 40.6324C446.353 40.8817 446.478 41.0064 446.353 41.2557C446.353 41.5051 445.854 41.7544 445.73 41.8791C444.982 42.1284 444.234 42.3777 443.361 42.6271C441.865 43.0011 437.502 44.3724 436.629 44.7464C436.38 44.871 435.881 45.1204 435.757 45.3697C435.757 45.619 436.255 45.619 436.505 45.619C438.624 45.619 440.618 45.619 442.738 45.619C443.984 45.619 445.106 45.619 446.228 45.619C446.353 45.619 446.478 45.619 446.602 45.7437C446.602 45.8684 446.228 46.1177 446.104 46.1177C445.48 46.4917 439.122 48.4863 438.624 48.7357C438.374 48.8603 437.751 49.1097 437.626 49.4837C437.502 49.733 438 49.9823 438.125 50.107C438.748 50.481 439.496 50.7303 440.12 51.1043C440.868 51.4783 441.616 51.8523 442.488 52.2263C443.486 52.725 443.361 53.3483 442.613 54.8443C442.364 55.343 442.114 55.7169 441.865 56.0909C439.995 59.9556 437.876 63.6955 436.006 67.5602C433.513 72.6715 431.518 77.7828 429.773 83.0187C428.526 87.008 429.648 89.8753 432.64 90C432.765 90 433.014 90 433.139 90C449.096 90 465.053 90 480.885 90C484.127 90 486.62 87.756 487.991 83.6421C488.615 81.5227 489.363 79.5281 490.111 77.5334C490.859 75.6635 491.607 73.7935 492.355 71.9235C493.851 68.1835 493.103 65.8149 490.235 65.8149C489.861 65.8149 489.363 65.8149 488.989 65.8149C479.015 65.8149 469.042 65.8149 459.069 65.8149C458.695 65.8149 458.196 65.8149 457.822 65.6902C457.448 65.6902 457.324 65.5655 457.573 64.9422C458.57 62.9476 459.692 60.9529 460.69 58.9583C460.939 58.4596 461.313 58.2103 461.687 58.2103C462.061 58.2103 462.435 58.2103 462.809 58.2103C469.915 58.2103 477.021 58.2103 484.127 58.2103C487.617 58.2103 490.983 58.2103 494.349 58.2103C496.469 58.2103 498.463 56.9636 500.333 54.8443C501.58 53.5976 501.705 52.8496 500.707 52.2263C499.959 51.603 498.962 51.3537 498.214 50.9797C497.591 50.6057 497.092 50.3563 496.593 50.107C496.219 49.8577 496.095 49.733 496.095 49.4837C496.219 49.1097 496.469 48.8603 496.843 48.7357C497.466 48.611 498.214 48.237 498.837 47.9877C500.707 47.3644 502.453 46.8657 504.323 46.2424C504.697 46.1177 504.946 45.993 504.946 45.7437C505.071 45.619 504.572 45.619 504.447 45.619C501.58 45.619 498.588 45.619 495.721 45.619C495.222 45.619 494.848 45.619 494.474 45.4944C494.349 45.4944 494.1 45.4944 494.1 45.3697C494.1 45.245 494.349 45.1204 494.723 44.871C495.097 44.7464 496.344 44.123 497.217 43.8737C499.336 43.2504 501.081 42.8764 503.076 42.2531C503.824 42.0037 504.821 41.7544 504.821 41.3804C504.946 40.7571 503.949 40.5077 503.45 40.3831C502.203 39.8844 500.832 39.3858 499.461 38.7624C498.588 38.3884 497.84 37.7651 497.715 36.3938C497.591 35.1471 496.843 34.5238 495.845 34.5238C495.347 34.3991 494.848 34.3991 494.349 34.3991C484.251 34.3991 474.154 34.3991 464.056 34.3991C463.682 34.3991 463.308 34.3991 462.934 34.3991C462.31 34.3991 462.31 34.2745 462.684 33.4018C463.806 31.6565 464.804 29.9112 465.801 28.1658C466.3 27.2932 466.674 26.9192 467.422 26.9192C468.17 26.9192 488.615 26.9192 498.713 26.9192C499.211 26.9192 499.71 27.0439 500.209 26.9192C502.079 26.7945 504.323 26.4205 505.445 25.2985C506.442 24.3012 506.068 23.3039 505.195 22.9299C504.323 22.5559 503.949 22.4312 503.575 22.1819C502.702 21.9326 502.079 21.6832 501.206 21.3092C500.957 21.1846 500.333 20.9352 500.084 20.8106C499.835 20.6859 499.585 20.6859 499.585 20.3119C499.585 20.0626 499.959 19.8132 500.333 19.8132C501.206 19.4392 504.073 18.8159 504.821 18.5666C508.063 17.8186 510.057 17.3199 511.429 16.8213C512.8 16.4473 514.047 15.9486 514.67 15.6993C515.169 15.5746 515.543 15.3253 515.543 15.076ZM528.657 14.8266C528.906 14.8266 529.031 14.8266 529.031 14.9513C529.031 15.2006 528.906 15.2006 528.532 15.3253C528.283 15.4499 523.795 16.5719 521.426 17.1953C519.058 17.6939 516.689 18.1926 514.32 18.8159C513.822 18.9406 512.575 19.0653 512.7 19.6886C512.7 20.1872 513.323 20.4366 513.697 20.6859C514.819 21.1846 515.941 21.5586 516.938 22.0572C518.185 22.6806 518.06 23.3039 517.063 25.0492C515.941 26.7945 514.819 28.5398 513.822 30.2852C512.824 32.0305 511.952 33.6511 511.204 35.3964C510.58 36.8924 510.705 37.3911 511.453 38.0144C511.952 38.2638 512.45 38.5131 512.949 38.7624C513.946 39.1364 516.814 40.0091 517.312 40.1337C517.562 40.2584 518.06 40.3831 518.185 40.6324C518.31 40.7571 518.185 41.0064 518.06 41.1311C517.936 41.2557 517.437 41.5051 516.689 41.7544C515.941 42.1284 513.822 42.7517 512.45 43.4997C511.079 44.123 509.708 44.6217 509.708 45.1204C509.832 45.619 510.331 45.619 510.705 45.619C511.204 45.619 517.188 45.619 520.429 45.619C520.803 45.619 521.177 45.619 521.551 45.619C521.8 45.619 521.925 45.7437 521.925 45.993C521.925 46.2424 521.8 46.367 521.551 46.6164C521.301 46.8657 519.058 47.863 518.06 48.237C517.063 48.611 516.066 49.1097 515.816 49.2343C515.567 49.359 515.442 49.4837 515.318 49.733C515.318 49.9823 515.442 50.107 515.567 50.2317C515.816 50.2317 524.169 52.1016 527.161 52.9743C533.643 54.969 540.001 57.2129 546.359 59.4569C547.107 59.7062 547.731 60.0802 548.354 60.5789C549.975 61.7009 549.601 63.6955 547.606 65.6902C546.235 67.0615 544.489 67.9342 541.747 68.4328C539.004 69.0562 534.516 69.0562 530.527 67.9342C528.033 67.1862 526.039 65.8149 525.291 62.8229C525.041 61.8256 524.293 61.2022 523.421 61.2022C522.548 61.2022 521.8 61.4516 521.052 61.8256C516.689 63.6955 512.45 65.8149 508.212 67.9342C507.214 68.4328 506.092 69.3055 505.22 70.3028C503.225 72.4221 501.854 75.4141 502.851 78.4061C503.724 81.0241 505.095 83.2681 506.84 85.138C508.835 87.008 511.079 88.3793 513.572 89.3767C519.556 91.6207 526.163 92.244 533.02 91.7453C536.261 91.496 539.503 90.8727 542.869 89.7507C549.227 87.5067 555.211 83.6421 560.571 77.4088C565.807 71.3002 569.672 64.3189 572.788 56.8389C574.16 53.847 573.91 53.2236 571.916 52.4756C570.295 51.8523 566.306 50.6057 565.932 50.3563C565.558 50.2317 565.558 49.733 566.056 49.4837C566.68 49.2343 570.42 48.1123 571.916 47.6137C572.414 47.489 573.786 46.9904 574.284 46.6164C574.658 46.2424 574.658 45.7437 574.284 45.619C573.91 45.619 573.038 45.619 572.664 45.619C570.046 45.619 567.303 45.619 564.56 45.619C563.937 45.619 563.189 45.619 562.566 45.619C562.316 45.4944 562.067 45.4944 562.067 45.1204C561.942 44.871 562.316 44.3724 563.189 43.8737C563.937 43.3751 565.682 42.6271 566.555 42.2531C566.929 42.0037 567.802 41.6297 567.926 41.3804C567.926 41.0064 567.802 40.7571 567.178 40.6324C566.555 40.3831 565.308 40.0091 564.56 39.8844C561.568 39.1364 557.33 38.3884 552.967 37.0171C548.479 35.7704 542.245 33.7758 539.877 32.7785C537.383 31.7811 536.386 31.4071 535.638 30.9085C534.267 30.0358 534.516 29.0385 536.012 27.2932C536.386 26.7945 537.009 26.4205 537.508 26.0465C538.131 25.6725 539.129 25.2985 539.752 25.0492C544.24 23.9272 549.102 23.8025 553.216 25.4232C554.712 25.9219 555.834 26.7945 556.582 28.4152C556.956 29.1632 557.455 29.5372 558.203 29.4125C559.075 29.2878 560.073 29.1632 560.945 28.7892C564.186 27.4178 567.428 25.9219 570.544 24.4259C571.168 24.1765 571.791 23.8025 572.414 23.4285C572.664 23.3039 573.162 23.0546 573.287 22.6806C573.287 22.3066 573.038 22.0572 572.788 21.8079C572.29 21.5586 570.295 20.6859 569.921 20.3119C569.672 20.1872 569.173 20.0626 569.298 19.6886C569.422 19.1899 569.796 19.1899 570.295 19.0653C570.794 18.9406 574.908 17.9433 577.526 17.1953C580.019 16.5719 582.512 15.8239 583.51 15.4499C583.759 15.4499 584.133 15.2006 584.133 14.9513C584.133 14.702 583.884 14.702 583.51 14.702C583.26 14.702 582.388 14.702 581.764 14.702C578.523 14.702 575.282 14.702 571.916 14.702C571.417 14.702 570.544 14.5773 569.672 13.8293C568.799 12.9566 567.926 11.5853 567.303 10.4633C565.184 6.72335 562.192 4.47937 558.452 3.23271C551.72 0.864067 544.365 0.490068 536.386 1.86139C531.275 2.85871 526.163 4.85337 521.052 8.21934C519.93 8.96733 519.182 9.59066 518.06 10.4633C517.312 11.0867 516.44 12.2086 516.19 13.206C515.692 14.5773 515.692 14.702 516.689 14.702C518.684 14.702 528.283 14.8266 528.657 14.8266ZM657.131 15.076C657.131 14.702 656.881 14.8266 656.507 14.8266C656.009 14.8266 655.51 14.702 655.011 14.702C652.019 14.702 649.152 14.702 646.285 14.702C645.786 14.702 645.163 14.702 644.664 14.702C643.043 14.328 642.545 12.3333 643.542 10.0893C643.791 9.59066 644.041 8.96733 644.29 8.34401C645.537 5.4767 644.664 3.10805 642.42 2.85871C641.921 2.85871 641.423 2.85871 640.924 2.85871C633.195 2.85871 625.465 2.85871 617.612 2.85871C613.622 2.85871 609.508 2.85871 605.394 2.85871C601.53 2.85871 597.54 2.85871 593.551 2.85871C591.432 2.85871 589.562 3.98071 587.692 6.10002C586.445 7.47134 585.572 9.21667 584.824 10.962C584.45 11.8346 584.45 12.5826 584.7 13.4553C584.949 14.328 585.946 14.8266 587.068 14.702C590.434 14.702 593.676 14.702 596.917 14.702C597.416 14.702 597.914 14.8266 598.538 14.8266C598.787 14.8266 598.787 14.9513 598.787 15.076C598.662 15.3253 598.538 15.3253 598.413 15.4499C598.039 15.6993 595.172 16.5719 593.052 17.0706C590.933 17.6939 588.19 18.4419 586.57 18.9406C585.074 19.4392 584.201 19.5639 583.453 19.8132C583.329 19.9379 582.955 20.0626 582.83 20.3119C582.83 20.5612 583.079 20.6859 583.204 20.6859C583.578 20.9352 584.201 21.1846 584.575 21.3092C585.572 21.6832 586.944 22.1819 587.567 22.4312C588.19 22.8052 588.564 22.9299 588.938 23.3039C589.312 23.6779 589.312 24.1765 588.938 24.9245C588.689 25.4232 588.44 25.7972 588.19 26.2959C586.445 29.1632 584.824 32.0305 583.079 34.8978C582.83 35.5211 582.456 36.0198 582.207 36.6431C581.833 37.3911 581.833 37.8898 582.207 38.3884C582.581 38.7624 583.079 38.8871 583.578 39.1364C584.45 39.5104 585.572 39.8844 586.57 40.2584C586.944 40.3831 587.193 40.5077 587.567 40.6324C587.941 40.8817 588.066 41.0064 587.941 41.2557C587.941 41.5051 587.442 41.7544 587.318 41.8791C586.57 42.1284 585.822 42.3777 584.949 42.6271C583.453 43.0011 579.09 44.3724 578.217 44.7464C577.968 44.871 577.469 45.1204 577.345 45.3697C577.345 45.619 577.843 45.619 578.093 45.619C580.212 45.619 582.207 45.619 584.326 45.619C585.572 45.619 586.694 45.619 587.816 45.619C587.941 45.619 588.066 45.619 588.19 45.7437C588.19 45.8684 587.816 46.1177 587.692 46.1177C587.068 46.4917 580.711 48.4863 580.212 48.7357C579.963 48.8603 579.339 49.1097 579.215 49.4837C579.09 49.733 579.589 49.9823 579.713 50.107C580.337 50.481 581.085 50.7303 581.708 51.1043C582.456 51.4783 583.204 51.8523 584.076 52.2263C585.074 52.725 584.949 53.3483 584.201 54.8443C583.952 55.343 583.702 55.7169 583.453 56.0909C581.583 59.9556 579.464 63.6955 577.594 67.5602C575.101 72.6715 573.106 77.7828 571.361 83.0187C570.114 87.008 571.236 89.8753 574.228 90C574.353 90 574.602 90 574.727 90C590.684 90 606.641 90 622.474 90C625.715 90 628.208 87.756 629.579 83.6421C630.203 81.5227 630.951 79.5281 631.699 77.5334C632.447 75.6635 633.195 73.7935 633.943 71.9235C635.439 68.1835 634.691 65.8149 631.823 65.8149C631.449 65.8149 630.951 65.8149 630.577 65.8149C620.604 65.8149 610.63 65.8149 600.657 65.8149C600.283 65.8149 599.784 65.8149 599.41 65.6902C599.036 65.6902 598.912 65.5655 599.161 64.9422C600.158 62.9476 601.28 60.9529 602.278 58.9583C602.527 58.4596 602.901 58.2103 603.275 58.2103C603.649 58.2103 604.023 58.2103 604.397 58.2103C611.503 58.2103 618.609 58.2103 625.715 58.2103C629.205 58.2103 632.571 58.2103 635.937 58.2103C638.057 58.2103 640.051 56.9636 641.921 54.8443C643.168 53.5976 643.293 52.8496 642.295 52.2263C641.547 51.603 640.55 51.3537 639.802 50.9797C639.179 50.6057 638.68 50.3563 638.181 50.107C637.807 49.8577 637.683 49.733 637.683 49.4837C637.807 49.1097 638.057 48.8603 638.431 48.7357C639.054 48.611 639.802 48.237 640.425 47.9877C642.295 47.3644 644.041 46.8657 645.911 46.2424C646.285 46.1177 646.534 45.993 646.534 45.7437C646.659 45.619 646.16 45.619 646.035 45.619C643.168 45.619 640.176 45.619 637.309 45.619C636.81 45.619 636.436 45.619 636.062 45.4944C635.937 45.4944 635.688 45.4944 635.688 45.3697C635.688 45.245 635.937 45.1204 636.311 44.871C636.685 44.7464 637.932 44.123 638.805 43.8737C640.924 43.2504 642.669 42.8764 644.664 42.2531C645.412 42.0037 646.409 41.7544 646.409 41.3804C646.534 40.7571 645.537 40.5077 645.038 40.3831C643.791 39.8844 642.42 39.3858 641.049 38.7624C640.176 38.3884 639.428 37.7651 639.303 36.3938C639.179 35.1471 638.431 34.5238 637.433 34.5238C636.935 34.3991 636.436 34.3991 635.937 34.3991C625.839 34.3991 615.742 34.3991 605.644 34.3991C605.27 34.3991 604.896 34.3991 604.522 34.3991C603.898 34.3991 603.898 34.2745 604.272 33.4018C605.394 31.6565 606.392 29.9112 607.389 28.1658C607.888 27.2932 608.262 26.9192 609.01 26.9192C609.758 26.9192 630.203 26.9192 640.301 26.9192C640.799 26.9192 641.298 27.0439 641.797 26.9192C643.667 26.7945 645.911 26.4205 647.033 25.2985C648.03 24.3012 647.656 23.3039 646.783 22.9299C645.911 22.5559 645.537 22.4312 645.163 22.1819C644.29 21.9326 643.667 21.6832 642.794 21.3092C642.545 21.1846 641.921 20.9352 641.672 20.8106C641.423 20.6859 641.173 20.6859 641.173 20.3119C641.173 20.0626 641.547 19.8132 641.921 19.8132C642.794 19.4392 645.661 18.8159 646.409 18.5666C649.651 17.8186 651.645 17.3199 653.017 16.8213C654.388 16.4473 655.635 15.9486 656.258 15.6993C656.757 15.5746 657.131 15.3253 657.131 15.076ZM715.531 14.702C716.029 14.8266 716.777 14.702 716.777 15.2006C716.777 15.5746 715.406 15.9486 714.783 16.1979C712.04 16.9459 709.297 17.5693 706.555 18.3173C705.308 18.5666 704.061 18.8159 702.815 19.1899C702.441 19.3146 701.568 19.6886 701.568 20.0626C701.568 20.4366 702.067 20.6859 702.316 20.6859C703.313 21.1846 706.555 22.4312 707.053 22.9299C707.801 23.4285 707.677 23.8025 707.178 24.9245C706.929 25.5479 706.555 26.0465 706.305 26.6699C704.809 29.1632 703.313 31.6565 701.817 34.2745C700.321 36.7678 700.321 37.2664 702.191 38.0144C703.438 38.5131 705.059 39.1364 705.807 39.3858C706.43 39.6351 706.929 39.8844 706.804 40.3831C706.679 41.0064 705.682 41.2557 704.809 41.5051C703.937 41.8791 700.82 42.7517 699.449 43.2504C698.077 43.6244 695.459 44.3724 695.085 44.497C694.711 44.497 694.337 44.6217 694.337 44.123C694.337 43.6244 694.961 43.4997 695.584 43.2504C696.332 43.0011 697.205 42.7517 698.077 42.3777C699.075 42.0037 700.321 41.6297 700.82 41.3804C701.319 41.2557 701.693 41.0064 701.693 40.6324C701.817 40.2584 701.693 40.1337 701.443 40.0091C701.194 39.7597 699.573 39.3858 698.701 39.1364C696.955 38.6378 695.21 38.1391 693.465 37.6404C692.093 37.2664 691.221 36.2691 690.597 34.7731C689.6 31.9058 688.478 29.1632 687.481 26.5452C686.483 23.8025 685.112 22.8052 682.993 22.3066C681.621 21.9326 680.125 21.4339 678.629 21.0599C678.006 20.8106 677.383 20.6859 676.76 20.3119C676.51 20.3119 676.136 20.0626 676.261 19.6886C676.386 19.4392 676.884 19.1899 677.009 19.0653C677.881 18.8159 678.629 18.5666 679.502 18.3173C681.372 17.6939 683.242 17.1953 685.237 16.4473C685.735 16.3226 686.857 15.8239 686.982 15.3253C687.231 14.702 686.234 14.702 685.486 14.702C684.738 14.702 677.632 14.8266 674.765 14.702C674.142 14.702 672.521 14.5773 671.274 13.8293C670.028 13.0813 668.532 11.4606 667.534 9.59066C666.911 8.34401 666.163 6.97269 665.54 5.60136C664.916 4.47937 663.919 4.10538 662.672 4.23004C660.428 4.47937 657.436 6.97269 656.065 9.59066C655.566 10.7127 655.317 11.71 655.566 12.7073C655.94 14.0786 656.688 14.8266 658.06 14.8266C661.55 14.8266 669.03 14.8266 669.529 14.8266C669.654 14.8266 669.903 14.8266 669.903 15.076C669.903 15.3253 669.529 15.4499 669.404 15.5746C669.03 15.6993 665.29 16.9459 663.919 17.1953C661.426 17.8186 659.182 18.3173 656.688 18.9406C656.19 19.0653 655.816 19.1899 655.192 19.4392C654.444 19.6886 654.569 20.1872 654.818 20.4366C655.068 20.6859 655.566 20.8106 655.94 20.9352C657.062 21.4339 658.06 21.8079 659.182 22.3066C660.927 23.0546 660.927 23.6779 659.556 26.1712C657.81 29.0385 656.19 31.9058 654.569 34.6485C653.447 36.6431 653.447 37.1418 654.818 37.8898C655.442 38.1391 658.309 39.1364 659.057 39.3858C659.431 39.6351 660.179 39.7597 660.054 40.2584C660.054 40.8817 658.932 41.0064 658.434 41.1311C657.436 41.5051 653.821 42.3777 651.577 43.3751C649.333 44.2477 648.46 44.871 648.46 45.245C648.46 45.619 648.834 45.4944 649.084 45.4944C650.455 45.619 651.951 45.4944 653.447 45.4944C655.442 45.4944 657.561 45.4944 659.556 45.619C659.805 45.619 660.054 45.619 660.054 45.8684C660.054 46.1177 659.93 46.367 659.431 46.6164C658.683 46.9904 655.566 47.9877 654.07 48.4863C652.45 48.8603 650.829 49.4837 649.956 49.733C649.582 49.8577 648.71 50.107 648.71 50.6057C648.71 50.9797 649.208 51.1043 649.458 51.229C650.455 51.603 653.696 52.8496 654.32 53.2236C655.317 53.7223 655.317 54.3456 654.569 55.7169C653.946 56.7143 653.447 57.7116 652.824 58.7089C648.336 66.8122 644.222 74.9155 641.105 83.3927C639.734 87.1327 640.606 89.8753 643.474 89.8753C646.84 90 650.081 90 653.447 90C655.068 89.8753 656.688 88.878 658.06 87.1327C658.932 86.1354 659.556 84.8887 660.054 83.6421C660.802 81.7721 661.55 79.9021 662.298 78.0321C665.29 70.9262 669.03 64.0695 672.77 57.2129C673.144 56.5896 673.518 56.0909 673.768 55.343C674.391 54.3456 674.391 53.847 673.768 53.3483C673.518 53.099 673.02 52.9743 672.77 52.725C672.147 52.4756 669.903 51.8523 669.404 51.603C668.906 51.4783 667.784 51.229 668.033 50.481C668.158 49.8577 669.155 49.6083 670.152 49.2343C671.025 48.985 675.139 47.7383 676.261 47.3644C677.383 46.9904 678.505 46.741 679.253 46.4917C680.001 46.367 680.499 46.2424 680.499 46.741C680.624 47.2397 680.001 47.3644 679.128 47.6137C678.255 47.9877 676.261 48.611 675.139 48.985C674.64 49.1097 674.142 49.359 673.643 49.6083C673.144 49.8577 673.02 50.6057 673.394 50.855C673.643 51.1043 674.017 51.1043 674.391 51.229C676.51 51.8523 678.505 52.351 680.499 52.9743C682.12 53.473 683.242 54.595 683.865 56.3403C685.237 60.0802 686.733 63.6955 688.229 67.3109C691.096 74.1675 694.462 80.6501 698.077 86.7587C699.698 89.5013 703.189 88.7533 705.682 85.512C706.43 84.5147 707.178 83.2681 707.677 82.0214C709.173 78.7801 710.419 75.4141 711.915 72.1728C714.533 66.8122 717.4 61.4516 720.392 56.2156C721.514 54.221 721.514 53.7223 720.018 52.9743C719.644 52.725 717.027 51.8523 716.279 51.4783C715.78 51.229 714.533 50.855 714.783 50.3563C714.907 49.9823 716.279 49.6083 716.777 49.4837C718.772 48.985 720.392 48.611 722.262 48.1123C723.135 47.863 724.382 47.3644 725.13 46.9904C725.504 46.741 726.252 46.367 726.252 45.8684C726.376 45.4944 725.628 45.619 725.254 45.619C721.888 45.4944 718.647 45.4944 715.406 45.4944C715.032 45.4944 714.533 45.4944 714.409 45.245C714.409 44.9957 715.406 44.123 716.653 43.6244C718.772 42.6271 722.138 41.8791 723.758 41.3804C724.506 41.2557 725.13 41.1311 725.753 40.7571C726.376 40.5077 726.376 40.1337 726.002 39.8844C725.504 39.5104 724.756 39.2611 724.132 39.1364C723.01 38.6378 721.888 38.2638 720.766 37.7651C719.52 37.1418 719.52 36.6431 720.517 34.8978C722.138 32.0305 723.883 29.2878 725.504 26.4205C725.753 25.9219 726.127 25.4232 726.376 24.9245C726.75 23.9272 726.75 23.4285 726.252 22.9299C725.379 22.3066 721.39 20.8106 721.016 20.5612C720.891 20.4366 720.766 20.1872 720.766 19.9379C720.891 19.6886 721.14 19.5639 721.39 19.4392C721.764 19.3146 722.138 19.1899 722.512 19.0653C724.132 18.6913 729.368 17.4446 731.114 16.9459C732.734 16.4473 735.103 15.6993 735.352 15.5746C735.726 15.4499 736.1 15.2006 735.976 15.076C735.976 14.8266 735.726 14.8266 735.477 14.8266C735.228 14.8266 734.604 14.8266 734.106 14.8266C730.74 14.8266 727.374 14.702 724.008 14.702C723.135 14.702 722.512 14.5773 722.013 13.7046C721.39 12.832 721.514 11.0867 722.262 9.21667C724.008 5.22737 723.135 2.98339 720.018 2.98339C717.027 2.85871 714.035 2.85871 711.043 2.98339C708.051 2.98339 704.934 5.60136 703.189 9.34133C701.942 12.2086 702.565 14.702 704.809 14.702C706.679 14.8266 713.91 14.702 715.531 14.702ZM751.88 14.702C752.628 14.702 753.002 14.702 753.376 14.702C753.626 14.702 753.75 14.8266 753.75 14.9513C753.75 15.2006 753.501 15.3253 753.252 15.4499C752.628 15.6993 748.764 16.6966 745.522 17.4446C742.156 18.1926 739.289 18.8159 736.172 19.4392C735.674 19.5639 734.801 19.6886 734.552 20.4366C734.302 21.0599 734.926 21.1846 735.798 21.5586C736.671 21.9326 736.92 22.0572 737.544 22.3066C737.793 22.4312 738.167 22.5559 738.416 22.8052C739.04 23.4285 739.04 23.9272 738.167 24.9245C737.793 25.4232 737.294 25.7972 736.92 26.2959C734.053 29.2878 731.435 32.4045 728.942 35.7704C727.571 37.5158 727.571 38.1391 728.817 38.8871C729.316 39.1364 729.814 39.3858 730.188 39.5104C730.936 39.8844 732.682 40.5077 733.305 40.7571C733.554 40.8817 733.554 41.1311 733.554 41.3804C733.554 41.6297 733.305 41.7544 732.931 41.8791C732.432 42.1284 732.058 42.1284 731.684 42.2531C730.687 42.6271 729.814 42.7517 728.817 43.1257C727.571 43.3751 726.823 43.6244 725.327 44.123C723.831 44.6217 723.581 44.7464 723.332 44.871C722.958 45.1204 722.958 45.245 723.083 45.3697C723.083 45.4944 723.083 45.4944 723.207 45.4944C723.581 45.619 724.205 45.619 724.579 45.619C727.321 45.619 729.69 45.619 732.432 45.619C732.682 45.619 733.18 45.619 733.43 45.619C733.679 45.619 733.679 45.7437 733.679 45.7437C733.554 45.8684 733.554 45.993 733.305 45.993C732.931 46.2424 732.058 46.4917 731.56 46.741C729.939 47.2397 729.316 47.3644 727.695 47.9877C726.947 48.237 726.199 48.4863 725.576 48.7357C725.327 48.8603 725.077 48.985 724.953 49.359C724.828 49.733 725.077 49.8577 725.202 49.9823C725.701 50.3563 726.449 50.6057 727.072 50.855C727.944 51.3537 728.692 51.603 729.565 52.1016C730.687 52.8496 730.812 53.3483 729.939 55.2183C728.568 58.4596 727.571 61.7009 727.072 64.9422C725.95 71.6742 727.072 77.0348 729.939 81.2734C731.934 84.39 734.676 86.634 737.793 88.2547C742.032 90.374 746.894 91.3713 751.88 91.6207C757.615 91.87 763.35 91.122 769.458 88.878C776.065 86.5094 782.548 82.6447 788.781 77.2841C790.527 75.6635 791.898 73.7935 792.646 71.5495C793.394 69.4302 793.269 67.6849 792.023 66.5629C789.903 64.5682 787.659 62.5736 785.415 60.4542C784.792 59.8309 783.919 59.5816 782.922 59.8309C782.049 60.0802 781.052 60.5789 780.055 61.0776C778.06 62.3242 776.065 63.3216 774.071 63.9449C767.962 65.8149 762.103 65.9395 756.742 64.8175C754.997 64.4435 753.376 63.6955 752.254 62.3242C751.132 60.9529 750.634 59.0829 750.883 56.8389C751.008 56.2156 751.132 55.5923 751.257 54.969C751.756 53.473 751.382 52.6003 750.509 52.2263C749.761 51.7276 748.888 51.4783 748.14 51.1043C747.517 50.7303 746.894 50.6057 746.27 50.2317C746.021 50.107 745.273 49.733 745.398 49.359C745.522 48.985 746.021 48.8603 746.769 48.611C747.891 48.1123 749.138 47.7383 750.26 47.3644C751.506 46.9904 753.376 46.367 753.875 46.2424C754.249 45.993 754.374 45.993 754.374 45.7437C754.374 45.619 754.124 45.619 754 45.619C751.008 45.619 748.14 45.619 745.273 45.619C744.899 45.619 744.4 45.619 743.902 45.4944C743.777 45.4944 743.528 45.619 743.528 45.3697C743.528 45.245 743.652 45.245 744.026 44.9957C744.525 44.7464 745.772 44.2477 747.018 43.8737C748.14 43.4997 750.634 42.7517 752.504 42.2531C753.252 42.0037 753.875 41.7544 754.498 41.5051C754.997 41.3804 754.997 41.0064 754.623 40.8817C754.249 40.6324 753.75 40.3831 753.002 40.1337C752.254 39.7597 751.257 39.3858 750.384 39.0118C748.639 38.2638 748.764 37.6404 750.634 35.7704C751.257 35.1471 751.88 34.6485 752.379 34.1498C755.496 31.5318 758.737 29.7865 762.103 28.7892C767.588 27.0439 772.824 26.7945 777.686 27.7918C780.429 28.2905 782.797 29.4125 784.044 32.1551C784.543 33.0278 785.291 33.2771 786.163 33.1525C786.911 33.0278 787.784 32.9031 788.532 32.5291C793.145 30.4098 797.633 28.2905 802.245 26.1712C802.869 25.9219 803.492 25.5479 804.24 25.0492C804.863 24.6752 805.611 24.3012 805.487 23.6779C805.487 23.1792 804.988 22.9299 804.489 22.6806C803.991 22.4312 803.492 22.1819 802.869 21.9326C802.245 21.6832 801.622 21.5586 800.874 21.1846C800.126 20.8106 799.627 20.6859 799.752 20.3119C799.877 19.8132 800.5 19.6886 801.373 19.4392C802.495 19.1899 804.988 18.5666 805.362 18.4419C808.603 17.8186 811.096 16.9459 812.842 16.1979C813.465 15.8239 814.213 15.4499 814.213 15.076C814.338 14.5773 813.59 14.702 813.216 14.702C812.717 14.702 805.237 14.8266 802.121 14.702C801.373 14.702 800.625 14.8266 799.253 14.4526C797.633 13.954 797.009 12.5826 795.887 10.962C793.145 6.47402 789.031 3.98071 784.293 2.60939C777.437 0.490068 769.832 0.739403 761.854 2.60939C756.119 4.10538 750.384 6.59869 744.774 10.214C743.777 10.7127 742.904 11.4606 742.032 12.084C741.533 12.5826 740.785 13.3306 740.91 14.0786C741.034 14.8266 741.782 14.702 742.156 14.702C743.902 14.702 750.384 14.702 751.88 14.702ZM884.426 15.076C884.426 14.702 884.177 14.8266 883.803 14.8266C883.304 14.8266 882.805 14.702 882.307 14.702C879.315 14.702 876.448 14.702 873.58 14.702C873.082 14.702 872.458 14.702 871.96 14.702C870.339 14.328 869.84 12.3333 870.838 10.0893C871.087 9.59066 871.336 8.96733 871.586 8.34401C872.832 5.4767 871.96 3.10805 869.716 2.85871C869.217 2.85871 868.718 2.85871 868.22 2.85871C860.49 2.85871 852.761 2.85871 844.907 2.85871C840.918 2.85871 836.804 2.85871 832.69 2.85871C828.825 2.85871 824.836 2.85871 820.847 2.85871C818.727 2.85871 816.857 3.98071 814.987 6.10002C813.741 7.47134 812.868 9.21667 812.12 10.962C811.746 11.8346 811.746 12.5826 811.995 13.4553C812.245 14.328 813.242 14.8266 814.364 14.702C817.73 14.702 820.971 14.702 824.213 14.702C824.711 14.702 825.21 14.8266 825.833 14.8266C826.083 14.8266 826.083 14.9513 826.083 15.076C825.958 15.3253 825.833 15.3253 825.709 15.4499C825.335 15.6993 822.467 16.5719 820.348 17.0706C818.229 17.6939 815.486 18.4419 813.865 18.9406C812.369 19.4392 811.497 19.5639 810.749 19.8132C810.624 19.9379 810.25 20.0626 810.125 20.3119C810.125 20.5612 810.375 20.6859 810.499 20.6859C810.873 20.9352 811.497 21.1846 811.871 21.3092C812.868 21.6832 814.239 22.1819 814.863 22.4312C815.486 22.8052 815.86 22.9299 816.234 23.3039C816.608 23.6779 816.608 24.1765 816.234 24.9245C815.985 25.4232 815.735 25.7972 815.486 26.2959C813.741 29.1632 812.12 32.0305 810.375 34.8978C810.125 35.5211 809.751 36.0198 809.502 36.6431C809.128 37.3911 809.128 37.8898 809.502 38.3884C809.876 38.7624 810.375 38.8871 810.873 39.1364C811.746 39.5104 812.868 39.8844 813.865 40.2584C814.239 40.3831 814.489 40.5077 814.863 40.6324C815.237 40.8817 815.361 41.0064 815.237 41.2557C815.237 41.5051 814.738 41.7544 814.613 41.8791C813.865 42.1284 813.117 42.3777 812.245 42.6271C810.749 43.0011 806.385 44.3724 805.513 44.7464C805.263 44.871 804.765 45.1204 804.64 45.3697C804.64 45.619 805.139 45.619 805.388 45.619C807.507 45.619 809.502 45.619 811.621 45.619C812.868 45.619 813.99 45.619 815.112 45.619C815.237 45.619 815.361 45.619 815.486 45.7437C815.486 45.8684 815.112 46.1177 814.987 46.1177C814.364 46.4917 808.006 48.4863 807.507 48.7357C807.258 48.8603 806.635 49.1097 806.51 49.4837C806.385 49.733 806.884 49.9823 807.009 50.107C807.632 50.481 808.38 50.7303 809.003 51.1043C809.751 51.4783 810.499 51.8523 811.372 52.2263C812.369 52.725 812.245 53.3483 811.497 54.8443C811.247 55.343 810.998 55.7169 810.749 56.0909C808.879 59.9556 806.759 63.6955 804.889 67.5602C802.396 72.6715 800.402 77.7828 798.656 83.0187C797.41 87.008 798.532 89.8753 801.524 90C801.648 90 801.898 90 802.022 90C817.979 90 833.937 90 849.769 90C853.01 90 855.504 87.756 856.875 83.6421C857.498 81.5227 858.246 79.5281 858.994 77.5334C859.742 75.6635 860.49 73.7935 861.238 71.9235C862.734 68.1835 861.986 65.8149 859.119 65.8149C858.745 65.8149 858.246 65.8149 857.872 65.8149C847.899 65.8149 837.926 65.8149 827.953 65.8149C827.579 65.8149 827.08 65.8149 826.706 65.6902C826.332 65.6902 826.207 65.5655 826.457 64.9422C827.454 62.9476 828.576 60.9529 829.573 58.9583C829.823 58.4596 830.197 58.2103 830.571 58.2103C830.945 58.2103 831.319 58.2103 831.693 58.2103C838.799 58.2103 845.904 58.2103 853.01 58.2103C856.501 58.2103 859.867 58.2103 863.233 58.2103C865.352 58.2103 867.347 56.9636 869.217 54.8443C870.464 53.5976 870.588 52.8496 869.591 52.2263C868.843 51.603 867.846 51.3537 867.098 50.9797C866.474 50.6057 865.976 50.3563 865.477 50.107C865.103 49.8577 864.978 49.733 864.978 49.4837C865.103 49.1097 865.352 48.8603 865.726 48.7357C866.35 48.611 867.098 48.237 867.721 47.9877C869.591 47.3644 871.336 46.8657 873.206 46.2424C873.58 46.1177 873.83 45.993 873.83 45.7437C873.954 45.619 873.456 45.619 873.331 45.619C870.464 45.619 867.472 45.619 864.604 45.619C864.106 45.619 863.732 45.619 863.358 45.4944C863.233 45.4944 862.984 45.4944 862.984 45.3697C862.984 45.245 863.233 45.1204 863.607 44.871C863.981 44.7464 865.228 44.123 866.1 43.8737C868.22 43.2504 869.965 42.8764 871.96 42.2531C872.708 42.0037 873.705 41.7544 873.705 41.3804C873.83 40.7571 872.832 40.5077 872.334 40.3831C871.087 39.8844 869.716 39.3858 868.344 38.7624C867.472 38.3884 866.724 37.7651 866.599 36.3938C866.474 35.1471 865.726 34.5238 864.729 34.5238C864.23 34.3991 863.732 34.3991 863.233 34.3991C853.135 34.3991 843.037 34.3991 832.939 34.3991C832.565 34.3991 832.191 34.3991 831.817 34.3991C831.194 34.3991 831.194 34.2745 831.568 33.4018C832.69 31.6565 833.687 29.9112 834.685 28.1658C835.183 27.2932 835.557 26.9192 836.305 26.9192C837.053 26.9192 857.498 26.9192 867.596 26.9192C868.095 26.9192 868.594 27.0439 869.092 26.9192C870.962 26.7945 873.206 26.4205 874.328 25.2985C875.326 24.3012 874.952 23.3039 874.079 22.9299C873.206 22.5559 872.832 22.4312 872.458 22.1819C871.586 21.9326 870.962 21.6832 870.09 21.3092C869.84 21.1846 869.217 20.9352 868.968 20.8106C868.718 20.6859 868.469 20.6859 868.469 20.3119C868.469 20.0626 868.843 19.8132 869.217 19.8132C870.09 19.4392 872.957 18.8159 873.705 18.5666C876.946 17.8186 878.941 17.3199 880.312 16.8213C881.684 16.4473 882.93 15.9486 883.553 15.6993C884.052 15.5746 884.426 15.3253 884.426 15.076Z" fill="#C9A6FF"></path><path d="M331.223 123.507H327.9V121.115H331.223V119.819C331.223 118.667 331.445 117.67 331.888 116.828C332.331 115.964 332.973 115.299 333.815 114.834C334.679 114.369 335.698 114.136 336.873 114.136H338.534V116.761H337.305C336.263 116.761 335.499 116.994 335.012 117.459C334.546 117.902 334.314 118.622 334.314 119.619V121.115H338.534V123.507H334.314V137.564H331.223V123.507ZM348.64 138.063C346.979 138.063 345.483 137.697 344.154 136.966C342.847 136.213 341.817 135.172 341.063 133.842C340.31 132.513 339.934 131.007 339.934 129.323C339.934 127.639 340.31 126.133 341.063 124.803C341.817 123.474 342.847 122.444 344.154 121.713C345.483 120.982 346.979 120.616 348.64 120.616C350.302 120.616 351.786 120.982 353.093 121.713C354.423 122.444 355.464 123.474 356.217 124.803C356.97 126.133 357.347 127.639 357.347 129.323C357.347 131.007 356.97 132.513 356.217 133.842C355.464 135.172 354.423 136.213 353.093 136.966C351.786 137.697 350.302 138.063 348.64 138.063ZM348.64 135.471C349.748 135.471 350.712 135.205 351.531 134.673C352.373 134.142 353.016 133.41 353.459 132.48C353.924 131.527 354.157 130.464 354.157 129.29C354.157 128.116 353.935 127.063 353.492 126.133C353.049 125.202 352.407 124.482 351.565 123.973C350.745 123.441 349.77 123.175 348.64 123.175C347.51 123.175 346.525 123.43 345.683 123.939C344.863 124.449 344.232 125.169 343.788 126.099C343.345 127.03 343.124 128.093 343.124 129.29C343.124 130.486 343.345 131.561 343.788 132.513C344.254 133.444 344.896 134.175 345.716 134.707C346.558 135.216 347.533 135.471 348.64 135.471ZM361.224 121.115H364.248V124.205C364.691 123.341 365.367 122.588 366.275 121.946C367.184 121.281 368.336 120.949 369.731 120.949H370.197V124.072H369.366C368.192 124.072 367.228 124.294 366.475 124.737C365.743 125.158 365.201 125.767 364.846 126.565C364.514 127.362 364.348 128.326 364.348 129.456V137.564H361.224V121.115Z" fill="#C9A6FF"></path><g clip-path="url(#clip0_4424_1801)"><path d="M433.843 118.229C433.544 116.055 432.331 114.169 430.129 112.462L428.861 111.619L428.013 112.886C426.931 114.517 426.387 116.783 426.566 118.952C426.648 119.714 426.898 121.083 427.681 122.279C426.898 122.703 425.354 123.285 423.298 123.242H383.957L383.881 123.693C383.511 125.873 383.517 132.679 387.938 137.909C391.299 141.882 396.335 143.899 402.904 143.899C417.153 143.899 427.698 137.343 432.636 125.422C434.577 125.46 438.759 125.432 440.907 121.334C440.962 121.241 441.092 120.991 441.467 120.214L441.674 119.79L440.467 118.985C439.162 118.11 436.16 117.789 433.848 118.229H433.843ZM415.413 103.677H409.43V109.113H415.413V103.677ZM415.413 110.2H409.43V115.636H415.413V110.2ZM408.343 110.2H402.361V115.636H408.343V110.2ZM401.273 110.2H395.291V115.636H401.273V110.2ZM394.203 116.724H388.221V122.16H394.203V116.724ZM401.273 116.724H395.291V122.16H401.273V116.724ZM408.343 116.724H402.361V122.16H408.343V116.724ZM415.413 116.724H409.43V122.16H415.413V116.724ZM422.482 116.724H416.5V122.16H422.482V116.724ZM458.837 115.506C458.397 115.506 458.038 115.653 457.75 115.941C457.461 116.229 457.32 116.599 457.32 117.039V124.394C455.841 123.187 454.133 122.578 452.192 122.578C449.935 122.578 448.004 123.383 446.405 124.998C444.807 126.607 444.013 128.553 444.013 130.836C444.013 133.119 444.812 135.06 446.405 136.674C448.004 138.284 449.929 139.094 452.192 139.094C454.454 139.094 456.358 138.289 457.978 136.674C459.577 135.082 460.371 133.136 460.371 130.836V117.039C460.371 116.599 460.224 116.229 459.925 115.941C459.626 115.653 459.267 115.506 458.837 115.506ZM456.918 132.837C456.651 133.462 456.287 134.011 455.825 134.478C455.362 134.951 454.818 135.321 454.199 135.598C453.573 135.875 452.91 136.011 452.197 136.011C451.485 136.011 450.805 135.875 450.18 135.598C449.554 135.321 449.016 134.951 448.559 134.484C448.102 134.016 447.738 133.467 447.471 132.842C447.205 132.211 447.069 131.543 447.069 130.836C447.069 130.129 447.205 129.461 447.471 128.83C447.738 128.199 448.102 127.656 448.559 127.188C449.016 126.721 449.56 126.351 450.18 126.074C450.805 125.797 451.474 125.661 452.197 125.661C452.92 125.661 453.573 125.797 454.199 126.074C454.824 126.351 455.362 126.721 455.825 127.194C456.287 127.667 456.651 128.216 456.918 128.835C457.184 129.461 457.32 130.124 457.32 130.831C457.32 131.537 457.184 132.206 456.918 132.826V132.837ZM525.696 125.003C524.081 123.394 522.15 122.584 519.91 122.584C517.669 122.584 515.722 123.388 514.123 125.003C512.524 126.612 511.73 128.558 511.73 130.841C511.73 133.125 512.53 135.065 514.123 136.68C515.722 138.289 517.647 139.099 519.91 139.099C521.965 139.099 523.744 138.43 525.255 137.093C525.549 136.789 525.696 136.419 525.696 135.99C525.696 135.56 525.554 135.18 525.266 134.891C524.978 134.603 524.614 134.457 524.179 134.457C523.798 134.467 523.461 134.592 523.172 134.842C522.716 135.234 522.221 135.533 521.682 135.729C521.144 135.924 520.557 136.022 519.915 136.022C519.349 136.022 518.806 135.935 518.289 135.756C517.772 135.576 517.288 135.332 516.859 135.011C516.424 134.69 516.048 134.31 515.727 133.859C515.407 133.413 515.162 132.918 514.999 132.374H526.566C526.996 132.374 527.355 132.228 527.654 131.94C527.953 131.651 528.1 131.282 528.1 130.841C528.1 129.7 527.898 128.64 527.501 127.667C527.104 126.688 526.501 125.802 525.707 125.008L525.696 125.003ZM514.988 129.308C515.146 128.77 515.385 128.276 515.706 127.824C516.027 127.379 516.407 126.993 516.842 126.672C517.283 126.351 517.761 126.107 518.289 125.927C518.816 125.748 519.355 125.661 519.91 125.661C520.464 125.661 521.003 125.748 521.525 125.927C522.047 126.107 522.525 126.351 522.955 126.672C523.39 126.993 523.771 127.373 524.092 127.824C524.418 128.27 524.663 128.765 524.831 129.308H514.988V129.308ZM541.717 123.617C541.445 123.35 541.103 123.144 540.689 122.992C540.276 122.839 539.825 122.736 539.33 122.676C538.84 122.616 538.378 122.589 537.948 122.589C536.975 122.589 536.061 122.747 535.202 123.062C534.343 123.378 533.549 123.829 532.82 124.416V124.122C532.82 123.698 532.673 123.339 532.374 123.04C532.075 122.742 531.722 122.589 531.303 122.589C530.884 122.589 530.514 122.742 530.215 123.04C529.916 123.339 529.769 123.704 529.769 124.122V137.566C529.769 137.99 529.916 138.349 530.215 138.648C530.514 138.947 530.873 139.099 531.303 139.099C531.732 139.099 532.08 138.947 532.374 138.648C532.673 138.349 532.82 137.985 532.82 137.566V130.841C532.82 130.124 532.956 129.45 533.222 128.819C533.489 128.189 533.853 127.645 534.316 127.177C534.778 126.71 535.322 126.34 535.942 126.074C536.567 125.802 537.231 125.666 537.943 125.666C538.655 125.666 539.33 125.791 539.944 126.036C540.189 126.145 540.401 126.199 540.586 126.199C540.798 126.199 540.999 126.161 541.184 126.079C541.369 125.998 541.532 125.889 541.668 125.748C541.804 125.606 541.913 125.443 541.994 125.253C542.076 125.068 542.12 124.867 542.12 124.65C542.12 124.226 541.984 123.883 541.712 123.617H541.717ZM476.071 125.003C474.456 123.394 472.526 122.584 470.285 122.584C468.044 122.584 466.098 123.388 464.499 125.003C462.9 126.612 462.106 128.558 462.106 130.841C462.106 133.125 462.905 135.065 464.499 136.68C466.098 138.289 468.023 139.099 470.285 139.099C472.547 139.099 474.451 138.294 476.071 136.68C477.67 135.087 478.464 133.141 478.464 130.841C478.453 129.7 478.252 128.645 477.861 127.672C477.464 126.699 476.871 125.808 476.071 125.003ZM475.011 132.837C474.744 133.462 474.38 134.011 473.918 134.478C473.456 134.951 472.912 135.321 472.292 135.598C471.672 135.875 471.003 136.011 470.29 136.011C469.578 136.011 468.898 135.875 468.273 135.598C467.647 135.321 467.109 134.951 466.652 134.484C466.195 134.016 465.831 133.467 465.565 132.842C465.298 132.211 465.162 131.543 465.162 130.836C465.162 130.129 465.298 129.461 465.565 128.83C465.831 128.199 466.195 127.656 466.652 127.188C467.109 126.721 467.653 126.351 468.273 126.074C468.898 125.797 469.567 125.661 470.29 125.661C471.014 125.661 471.666 125.797 472.292 126.074C472.917 126.351 473.456 126.721 473.918 127.194C474.38 127.667 474.744 128.216 475.011 128.835C475.277 129.461 475.413 130.124 475.413 130.831C475.413 131.537 475.277 132.206 475.011 132.826V132.837ZM510.077 124.117C510.077 123.91 510.034 123.715 509.952 123.53C509.87 123.345 509.762 123.176 509.626 123.035C509.49 122.894 509.327 122.78 509.142 122.703C508.957 122.627 508.756 122.584 508.543 122.584C508.239 122.584 507.967 122.66 507.728 122.818L498.994 128.553V117.05C498.994 116.615 498.847 116.251 498.548 115.952C498.249 115.653 497.895 115.5 497.477 115.5C497.058 115.5 496.688 115.653 496.389 115.952C496.09 116.251 495.943 116.615 495.943 117.05V137.544C495.943 137.968 496.09 138.333 496.389 138.637C496.688 138.941 497.047 139.094 497.477 139.094C497.906 139.094 498.254 138.941 498.548 138.637C498.847 138.333 498.994 137.968 498.994 137.544V132.222L500.778 131.043L507.527 138.691C507.798 138.958 508.141 139.088 508.549 139.088C508.761 139.088 508.962 139.05 509.147 138.969C509.332 138.892 509.495 138.778 509.631 138.637C509.767 138.496 509.876 138.333 509.957 138.142C510.039 137.957 510.083 137.756 510.083 137.555C510.083 137.153 509.941 136.794 509.658 136.479L503.377 129.341L509.495 125.329C509.887 125.063 510.077 124.655 510.077 124.106V124.117ZM484.718 127.177C485.186 126.71 485.73 126.34 486.355 126.074C486.981 125.802 487.644 125.666 488.356 125.666C488.998 125.666 489.591 125.775 490.14 125.992C490.684 126.21 491.206 126.531 491.701 126.949C491.995 127.183 492.326 127.302 492.696 127.302C493.137 127.302 493.496 127.156 493.784 126.862C494.072 126.569 494.214 126.199 494.214 125.759C494.214 125.318 494.04 124.911 493.686 124.595C492.185 123.258 490.407 122.589 488.356 122.589C486.1 122.589 484.169 123.394 482.57 125.008C480.971 126.618 480.177 128.564 480.177 130.847C480.177 133.13 480.977 135.071 482.57 136.685C484.169 138.294 486.094 139.104 488.356 139.104C490.401 139.104 492.18 138.436 493.686 137.099C494.007 136.772 494.17 136.397 494.17 135.962C494.17 135.527 494.029 135.152 493.74 134.864C493.452 134.576 493.088 134.429 492.653 134.429C492.283 134.44 491.962 134.549 491.69 134.756C491.201 135.18 490.69 135.495 490.14 135.707C489.596 135.919 489.004 136.022 488.356 136.022C487.644 136.022 486.981 135.886 486.355 135.614C485.73 135.343 485.186 134.973 484.718 134.511C484.251 134.049 483.881 133.494 483.614 132.869C483.348 132.239 483.212 131.564 483.212 130.847C483.212 130.129 483.348 129.455 483.614 128.825C483.881 128.194 484.251 127.65 484.718 127.183V127.177Z" fill="#C9A6FF"></path></g><defs><clipPath id="clip0_4424_1801"><rect width="165.161" height="40" fill="white" transform="translate(383.735 104)"></rect></clipPath></defs></svg> 